<?xml version="1.0" encoding="utf-8"?>
<svg viewBox="-155.702 -51.984 264.798 244.36" xmlns="http://www.w3.org/2000/svg">
  <path d="M -17.671 -45.852 C -14.111 -40.897 -9.808 -32.606 -6.673 -24.561 C -3.432 -16.27 1.721 1.097 1.084 1.636 C 0.978 1.784 -0.776 1.44 -2.795 0.901 C -12.464 -1.552 -26.012 -2.19 -35.948 -0.62 L -41.42 0.263 L -52.152 -5.33 C -58.049 -8.421 -64.85 -12.149 -67.294 -13.621 C -71.81 -16.368 -78.239 -21.078 -77.92 -21.372 C -77.814 -21.47 -74.998 -21.078 -71.651 -20.538 C -64.319 -19.312 -48.911 -19.066 -42.164 -20.096 C -37.063 -20.832 -28.616 -22.549 -27.606 -23.089 C -27.181 -23.285 -29.678 -23.334 -33.132 -23.187 L -39.401 -22.942 L -37.01 -25.64 C -31.325 -32.067 -27.5 -38.69 -24.79 -46.735 L -23.037 -51.984 L -21.815 -50.905 C -21.124 -50.316 -19.265 -48.011 -17.671 -45.852 Z M 11.391 -26.376 C 19.148 -16.025 30.252 -6.458 41.781 -0.277 L 46.032 1.98 L 41.25 -2.141 L 36.521 -6.262 L 40.719 -6.556 C 49.219 -7.243 58.464 -9.941 66.168 -14.013 C 68.505 -15.24 70.471 -16.123 70.577 -16.025 C 71.056 -15.632 69.568 -7.587 68.293 -3.564 C 66.38 2.618 62.661 11.007 58.464 18.611 C 54.585 25.724 46.988 37.743 46.403 37.743 C 46.191 37.743 45.022 36.125 43.8 34.162 C 38.753 25.92 30.04 17.09 21.486 11.595 C 18.829 9.829 17.129 8.407 16.97 7.671 C 16.81 7.082 15.376 2.176 13.782 -3.22 C 12.135 -8.617 10.328 -15.24 9.744 -17.938 C 8.575 -23.089 7.672 -30.889 8.256 -30.399 C 8.469 -30.202 9.85 -28.436 11.391 -26.376 Z M -105.388 -14.994 C -98.215 -13.326 -90.99 -10.726 -80.948 -6.164 C -72.182 -2.19 -58.368 5.12 -58.368 5.757 C -58.368 5.954 -60.121 7.033 -62.247 8.161 C -71.172 12.822 -80.736 20.867 -86.633 28.668 L -89.608 32.592 L -100.713 35.389 C -114.367 38.872 -119.52 39.951 -125.418 40.687 C -132.803 41.619 -133.015 41.374 -127.915 38.136 C -116.864 31.219 -106.238 20.671 -99.544 10.025 L -97.1 6.101 L -101.563 10.516 L -106.026 14.882 L -106.344 11.007 C -107.088 3.157 -110.01 -5.379 -114.42 -12.492 C -115.748 -14.651 -116.811 -16.466 -116.811 -16.564 C -116.811 -17.006 -109.851 -16.025 -105.388 -14.994 Z M -69.366 109.32 C -69.366 109.32 -67.932 111.037 -67.932 110.644 C -67.932 110.546 -66.497 110.35 -64.744 110.154 C -61.981 109.859 -61.343 109.957 -59.537 110.988 C -52.949 114.863 -43.279 118.248 -33.397 120.211 C -28.616 121.192 -26.225 121.339 -16.661 121.339 C -6.248 121.339 -5.132 121.241 -0.351 120.064 C 16.651 115.795 26.108 105.15 26.108 90.187 C 26.108 84.84 25.364 81.504 23.345 77.775 C 20.264 72.133 13.622 67.08 4.909 63.744 L 1.031 62.273 L -20.699 72.722 C -32.653 78.413 -42.111 83.172 -41.739 83.27 C -41.367 83.319 -39.454 83.073 -37.488 82.73 L -33.929 82.043 L -25.056 84.349 C -13.421 87.44 -10.073 88.617 -8.214 90.334 C -6.939 91.512 -6.726 92.002 -6.992 93.523 C -7.204 94.455 -7.683 95.632 -8.161 96.123 C -10.923 98.968 -22.346 98.625 -33.079 95.387 L -37.223 94.161 L -53.268 101.716 L -69.366 109.32 Z M 74.881 25.479 C 73.553 32.249 73.287 46.476 74.403 52.706 C 75.2 57.416 77.059 65.216 77.644 66.148 C 77.856 66.541 77.909 64.235 77.75 61.046 L 77.484 55.257 L 80.406 57.465 C 87.42 62.714 93.954 66.001 102.987 68.65 L 109.096 70.416 L 107.078 72.084 C 101.711 76.402 91.032 81.553 79.238 85.477 C 70.259 88.47 51.451 93.229 50.866 92.64 C 50.707 92.542 51.079 90.874 51.663 89.01 C 53.629 82.387 54.426 75.371 54.107 67.179 C 53.895 63.009 53.417 58.201 53.045 56.533 L 52.301 53.491 L 58.358 43.532 C 61.758 38.087 65.796 31.758 67.39 29.502 C 70.365 25.332 75.465 19.396 75.784 19.69 C 75.89 19.788 75.465 22.388 74.881 25.479 Z M -97.365 48.291 C -100.606 56.091 -101.775 71.692 -99.916 81.798 L -98.959 86.851 L -105.016 96.761 C -108.363 102.206 -112.401 108.486 -113.995 110.742 C -116.97 114.912 -122.071 120.848 -122.389 120.554 C -122.496 120.456 -122.071 117.856 -121.486 114.765 C -120.158 107.995 -119.892 93.768 -121.008 87.538 C -121.805 82.828 -123.665 75.028 -124.249 74.096 C -124.461 73.703 -124.515 76.009 -124.355 79.198 L -124.09 84.987 L -127.012 82.779 C -134.025 77.53 -140.56 74.243 -149.592 71.594 L -155.702 69.828 L -153.683 68.16 C -145.979 61.929 -129.562 55.11 -111.232 50.548 C -106.822 49.468 -102.413 48.389 -101.403 48.095 C -98.428 47.359 -96.993 47.457 -97.365 48.291 Z M 85.507 99.312 C 85.347 99.459 83.435 100.734 81.203 102.157 C 69.993 109.32 59.633 119.573 52.938 130.219 L 50.494 134.143 L 54.957 129.728 L 59.42 125.362 L 59.739 129.237 C 60.483 137.087 63.405 145.623 67.815 152.736 C 69.143 154.895 70.099 156.71 69.993 156.808 C 69.568 157.25 60.855 155.876 56.498 154.699 C 49.804 152.933 40.719 149.499 32.483 145.623 C 24.78 142.042 11.763 135.026 11.763 134.487 C 11.763 134.29 13.516 133.211 15.641 132.083 C 24.567 127.422 34.131 119.377 40.028 111.576 L 43.003 107.652 L 54.107 104.855 C 66.646 101.667 70.896 100.685 76.581 99.802 C 80.672 99.165 85.985 98.87 85.507 99.312 Z M -90.405 106.082 C -85.358 114.324 -76.645 123.154 -68.197 128.6 L -63.947 131.347 L -60.918 141.6 C -57.146 154.208 -55.977 158.967 -55.18 164.412 C -54.171 171.231 -54.437 171.428 -57.943 166.718 C -65.434 156.514 -76.857 146.702 -88.386 140.521 L -92.637 138.264 L -87.855 142.385 L -83.127 146.506 L -87.324 146.8 C -95.825 147.487 -105.069 150.185 -112.773 154.257 C -115.111 155.484 -117.076 156.367 -117.183 156.269 C -117.661 155.876 -116.173 147.831 -114.898 143.808 C -112.985 137.626 -109.266 129.237 -105.069 121.633 C -101.191 114.52 -93.593 102.501 -93.009 102.501 C -92.796 102.501 -91.627 104.12 -90.405 106.082 Z M -42.961 139.54 C -33.344 141.845 -20.274 142.385 -10.658 140.864 L -5.185 139.981 L 5.547 145.574 C 11.444 148.665 18.245 152.393 20.689 153.865 C 25.205 156.612 31.633 161.322 31.315 161.616 C 31.208 161.714 28.393 161.322 25.045 160.782 C 17.713 159.556 2.306 159.31 -4.442 160.34 C -9.542 161.076 -17.99 162.793 -18.999 163.333 C -19.424 163.529 -16.927 163.578 -13.474 163.431 L -7.204 163.186 L -9.595 165.884 C -15.28 172.36 -18.84 178.394 -21.709 186.734 L -23.621 192.376 L -25.428 190.511 C -32.972 182.564 -40.517 166.178 -46.148 145.672 C -48.008 138.951 -48.061 138.068 -46.945 138.509 C -46.467 138.657 -44.714 139.147 -42.961 139.54 Z" stroke="none" style="fill: rgb(250, 174, 9);"/>
  <path d="M -40.889 18.856 C -49.655 20.377 -56.456 23.369 -61.822 28.03 C -68.463 33.721 -71.066 39.215 -71.491 48.095 C -71.81 54.472 -71.279 57.514 -69.047 61.733 C -66.391 66.884 -60.121 71.986 -52.736 75.077 C -50.877 75.862 -49.124 76.5 -48.805 76.5 C -48.22 76.5 -6.301 56.533 -5.61 55.944 C -5.345 55.699 -7.204 55.846 -9.648 56.288 L -14.111 57.023 L -20.593 55.208 C -35.416 51.087 -38.71 49.517 -38.71 46.574 C -38.71 44.317 -37.966 43.336 -35.522 42.453 C -32.707 41.423 -28.403 41.472 -22.293 42.649 L -17.299 43.581 L -0.244 35.487 C 15.854 27.785 19.36 25.969 16.81 26.607 C 16.226 26.754 14.419 27.049 12.772 27.196 C 10.063 27.49 9.478 27.392 6.078 25.822 C 1.084 23.467 -7.417 20.818 -13.633 19.543 C -20.487 18.218 -35.044 17.826 -40.889 18.856 Z" stroke="none" style="fill: rgb(250, 174, 9);"/>
  <path d="M 15.269 45.544 C 14.366 45.887 14.149 46.294 15.801 47.065 C 16.771 47.517 17.22 47.515 16.479 48.019 C 15.985 48.356 15.444 48.778 15.145 49.334 C 14.932 49.732 14.785 51.043 17.187 50.174 C 18.368 49.748 18.633 49.45 18.564 50.253 C 18.491 51.102 18.533 51.271 18.609 51.636 C 18.706 52.099 18.937 52.848 19.462 52.483 C 21.584 50.701 25.045 45.642 25.045 45.397 C 25.045 44.955 16.491 45.102 15.269 45.544 Z" stroke="none" style="fill: rgb(250, 174, 9);"/>
  <path d="M -6.036 59.231 C -16.29 63.744 -31.113 70.22 -38.976 73.654 C -71.066 87.538 -67.932 86.017 -70.216 89.304 C -71.279 90.923 -72.182 92.395 -72.182 92.591 C -72.182 92.787 -70.163 92.885 -67.666 92.787 L -63.15 92.64 L -25.003 71.986 C -4.07 60.654 13.197 51.284 13.304 51.185 C 14.101 50.499 10.488 51.97 -6.036 59.231 Z" stroke="none" style="fill: rgb(250, 174, 9);"/>
</svg>