<?xml version="1.0" standalone="no"?>
<!DOCTYPE svg PUBLIC "-//W3C//DTD SVG 20010904//EN"
 "http://www.w3.org/TR/2001/REC-SVG-20010904/DTD/svg10.dtd">
<svg version="1.0" xmlns="http://www.w3.org/2000/svg"
 width="1003.000000pt" height="564.000000pt" viewBox="0 0 1003.000000 564.000000"
 preserveAspectRatio="xMidYMid meet">

<g transform="translate(0.000000,564.000000) scale(0.100000,-0.100000)"
fill="#000000" stroke="none">
<path d="M0 2820 l0 -2820 5015 0 5015 0 0 2820 0 2820 -5015 0 -5015 0 0
-2820z m5169 1509 c21 -41 54 -114 71 -164 33 -95 82 -267 77 -272 -2 -1 -35
4 -73 12 -75 16 -248 19 -305 6 -33 -8 -46 -3 -145 53 -119 68 -229 139 -240
157 -5 9 1 10 22 5 77 -17 251 -18 343 -2 111 19 154 38 69 29 -60 -6 -73 3
-42 27 27 23 92 143 115 212 l21 67 24 -28 c13 -15 41 -61 63 -102z m372 -285
c63 -60 138 -118 183 -141 l31 -15 -38 39 -38 40 83 16 c49 10 115 32 162 55
l78 39 -6 -48 c-10 -74 -52 -192 -107 -303 -58 -115 -117 -216 -127 -216 -4 0
-18 21 -31 46 -30 56 -135 171 -201 219 -44 33 -52 44 -70 105 -38 127 -61
224 -67 285 l-6 60 51 -65 c27 -36 74 -88 103 -116z m-1260 17 c89 -23 213
-76 329 -142 134 -75 131 -71 76 -103 -75 -44 -161 -121 -213 -191 -53 -72
-41 -66 -248 -120 -55 -14 -127 -28 -160 -31 l-60 -6 55 38 c71 48 185 164
233 236 50 76 58 101 18 56 -41 -47 -51 -48 -51 -5 0 51 -28 146 -64 220 -33
66 -34 67 -12 67 13 0 56 -9 97 -19z m953 -307 c101 -26 193 -80 277 -164 119
-118 179 -260 179 -427 0 -110 -14 -172 -62 -273 -33 -69 -56 -100 -122 -165
-128 -126 -257 -179 -436 -177 -144 1 -246 36 -370 128 l-65 48 30 6 c22 5 44
-1 81 -22 108 -60 262 -98 394 -98 269 0 425 127 424 345 -1 129 -76 225 -214
275 -35 12 -39 11 -243 -95 -114 -58 -207 -109 -207 -112 0 -2 17 -2 38 2 64
10 284 -59 297 -93 26 -69 -77 -88 -241 -45 l-60 16 -155 -81 -155 -81 -36 47
c-45 60 -81 132 -104 207 -25 82 -25 248 0 329 64 215 225 373 437 430 74 20
236 20 313 0z m805 -145 c-14 -87 -6 -269 15 -349 l14 -55 1 53 1 54 48 -36
c61 -45 142 -85 211 -106 l55 -16 -71 -47 c-98 -65 -310 -147 -470 -182 -38
-8 -39 -6 -18 80 17 68 19 230 5 290 -9 38 -6 45 56 155 70 121 153 244 160
237 3 -2 -1 -38 -7 -78z m-1693 -226 c-32 -113 -41 -216 -26 -321 l11 -83 -37
-67 c-89 -159 -204 -327 -190 -277 3 11 10 62 17 114 12 103 0 253 -26 333
l-15 43 4 -57 c1 -32 1 -58 -2 -58 -2 0 -21 13 -42 30 -52 41 -141 87 -208
106 l-56 16 35 29 c70 59 271 143 459 193 74 19 82 19 76 -1z m1789 -541 c-6
-4 -35 -27 -65 -49 -93 -71 -207 -198 -247 -277 l-15 -31 40 38 40 39 7 -53
c10 -68 40 -162 71 -218 13 -24 22 -46 19 -49 -3 -3 -35 0 -71 7 -105 19 -254
83 -416 179 l-76 45 71 47 c67 44 175 148 222 213 16 22 39 33 110 53 174 49
336 78 310 56z m-1686 -114 c51 -76 123 -149 192 -195 34 -22 38 -31 72 -156
36 -133 57 -233 57 -271 0 -19 -1 -19 -17 4 -79 118 -223 255 -316 301 l-42
21 45 -40 45 -40 -40 -6 c-79 -13 -161 -38 -218 -67 -32 -16 -60 -29 -62 -29
-3 0 -5 12 -5 28 0 53 42 178 99 298 56 115 128 240 136 233 1 -2 26 -39 54
-81z m458 -313 c61 -16 199 -21 299 -10 59 6 59 6 177 -62 114 -66 229 -144
223 -151 -2 -2 -44 2 -92 9 -98 13 -235 7 -327 -15 -78 -18 -84 -28 -12 -20
l59 7 -36 -49 c-46 -62 -87 -142 -108 -213 l-17 -55 -33 45 c-18 24 -52 85
-76 134 -55 115 -140 395 -121 395 3 0 32 -7 64 -15z m-531 -543 c35 -18 35
-18 17 -41 -17 -21 -19 -21 -55 -7 -68 29 -128 15 -128 -29 0 -28 28 -50 80
-60 49 -10 107 -42 120 -64 21 -41 12 -91 -24 -127 -31 -31 -39 -34 -95 -34
-60 0 -108 14 -144 42 -18 13 -18 15 0 37 l19 23 34 -20 c19 -11 52 -24 72
-27 31 -6 41 -3 63 19 24 25 26 29 13 48 -10 14 -42 30 -91 45 -87 27 -112 52
-112 114 0 93 124 136 231 81z m383 -2 c106 -54 130 -203 48 -297 -40 -45 -82
-63 -149 -63 -143 0 -235 131 -184 265 19 50 73 102 114 111 15 3 32 7 37 10
21 8 97 -6 134 -26z m231 -140 l0 -160 85 0 85 0 0 -30 0 -30 -115 0 -115 0 0
190 0 190 30 0 30 0 0 -160z m282 -5 c39 -88 74 -164 78 -168 3 -4 40 67 80
158 70 158 84 184 97 172 2 -3 -33 -89 -78 -192 -58 -130 -88 -185 -98 -183
-8 2 -45 72 -83 158 -105 234 -100 222 -82 218 9 -2 44 -68 86 -163z m338 -25
c0 -162 -2 -190 -15 -190 -13 0 -15 27 -15 183 0 101 3 187 7 190 19 20 23 -9
23 -183z m341 8 c46 -100 86 -185 87 -190 2 -4 -3 -8 -10 -8 -8 0 -26 25 -41
55 l-27 55 -109 0 -109 0 -22 -55 c-12 -30 -29 -55 -36 -55 -8 0 -14 2 -14 4
0 2 32 73 71 158 39 84 78 168 85 186 8 17 20 32 28 32 7 0 49 -79 97 -182z"/>
<path d="M4860 3696 c-109 -31 -185 -89 -227 -174 -24 -50 -28 -69 -28 -147 0
-80 3 -95 27 -136 33 -56 75 -93 143 -126 l52 -26 214 112 c182 95 207 111
169 106 -34 -4 -68 2 -137 24 -51 16 -104 36 -118 45 -30 20 -33 61 -6 76 24
12 92 13 145 0 37 -8 48 -4 195 70 185 94 200 103 152 97 -24 -3 -54 5 -95 24
-103 48 -205 69 -330 68 -61 0 -131 -6 -156 -13z"/>
<path d="M5470 3422 c-15 -7 -23 -52 -9 -52 4 0 14 -7 22 -15 13 -12 18 -10
41 23 14 21 26 41 26 45 0 9 -60 8 -80 -1z"/>
<path d="M5030 3174 c-282 -132 -382 -183 -402 -207 -16 -17 -28 -35 -28 -39
0 -4 20 -8 44 -8 40 0 82 22 398 206 325 190 380 224 368 224 -3 0 -174 -79
-380 -176z"/>
<path d="M4593 1820 c-72 -44 -91 -137 -40 -204 54 -70 145 -70 207 0 24 28
30 44 30 82 0 111 -107 178 -197 122z"/>
<path d="M5811 1766 c-64 -138 -68 -126 43 -126 53 0 96 2 96 4 0 8 -87 196
-93 202 -3 4 -24 -32 -46 -80z"/>
</g>
</svg>
