<?xml version="1.0" encoding="utf-8"?>
<svg viewBox="0 0 500 500" xmlns="http://www.w3.org/2000/svg">
  <path d="M 259.76 12.143 C 266.46 22.243 274.56 39.143 280.46 55.543 C 286.56 72.443 296.26 107.843 295.06 108.943 C 294.86 109.243 291.56 108.543 287.76 107.443 C 269.56 102.443 244.06 101.143 225.36 104.343 L 215.06 106.143 L 194.86 94.743 C 183.76 88.443 170.96 80.843 166.36 77.843 C 157.86 72.243 145.76 62.643 146.36 62.043 C 146.56 61.843 151.86 62.643 158.16 63.743 C 171.96 66.243 200.96 66.743 213.66 64.643 C 223.26 63.143 239.16 59.643 241.06 58.543 C 241.86 58.143 237.16 58.043 230.66 58.343 L 218.86 58.843 L 223.36 53.343 C 234.06 40.243 241.26 26.743 246.36 10.343 L 249.66 -0.357 L 251.96 1.843 C 253.26 3.043 256.76 7.743 259.76 12.143 Z M 314.46 51.843 C 329.06 72.943 349.96 92.443 371.66 105.043 L 379.66 109.643 L 370.66 101.243 L 361.76 92.843 L 369.66 92.243 C 385.66 90.843 403.06 85.343 417.56 77.043 C 421.96 74.543 425.66 72.743 425.86 72.943 C 426.76 73.743 423.96 90.143 421.56 98.343 C 417.96 110.943 410.96 128.043 403.06 143.543 C 395.76 158.043 381.46 182.543 380.36 182.543 C 379.96 182.543 377.76 179.243 375.46 175.243 C 365.96 158.443 349.56 140.443 333.46 129.243 C 328.46 125.643 325.26 122.743 324.96 121.243 C 324.66 120.043 321.96 110.043 318.96 99.043 C 315.86 88.043 312.46 74.543 311.36 69.043 C 309.16 58.543 307.46 42.643 308.56 43.643 C 308.96 44.043 311.56 47.643 314.46 51.843 Z M 94.66 75.043 C 108.16 78.443 121.76 83.743 140.66 93.043 C 157.16 101.143 183.16 116.043 183.16 117.343 C 183.16 117.743 179.86 119.943 175.86 122.243 C 159.06 131.743 141.06 148.143 129.96 164.043 L 124.36 172.043 L 103.46 177.743 C 77.76 184.843 68.06 187.043 56.96 188.543 C 43.06 190.443 42.66 189.943 52.26 183.343 C 73.06 169.243 93.06 147.743 105.66 126.043 L 110.26 118.043 L 101.86 127.043 L 93.46 135.943 L 92.86 128.043 C 91.46 112.043 85.96 94.643 77.66 80.143 C 75.16 75.743 73.16 72.043 73.16 71.843 C 73.16 70.943 86.26 72.943 94.66 75.043 Z M 162.46 328.443 C 162.46 328.443 165.16 331.943 165.16 331.143 C 165.16 330.943 167.86 330.543 171.16 330.143 C 176.36 329.543 177.56 329.743 180.96 331.843 C 193.36 339.743 211.56 346.643 230.16 350.643 C 239.16 352.643 243.66 352.943 261.66 352.943 C 281.26 352.943 283.36 352.743 292.36 350.343 C 324.36 341.643 342.16 319.943 342.16 289.443 C 342.16 278.543 340.76 271.743 336.96 264.143 C 331.16 252.643 318.66 242.343 302.26 235.543 L 294.96 232.543 L 254.06 253.843 C 231.56 265.443 213.76 275.143 214.46 275.343 C 215.16 275.443 218.76 274.943 222.46 274.243 L 229.16 272.843 L 245.86 277.543 C 267.76 283.843 274.06 286.243 277.56 289.743 C 279.96 292.143 280.36 293.143 279.86 296.243 C 279.46 298.143 278.56 300.543 277.66 301.543 C 272.46 307.343 250.96 306.643 230.76 300.043 L 222.96 297.543 L 192.76 312.943 L 162.46 328.443 Z M 433.96 157.543 C 431.46 171.343 430.96 200.343 433.06 213.043 C 434.56 222.643 438.06 238.543 439.16 240.443 C 439.56 241.243 439.66 236.543 439.36 230.043 L 438.86 218.243 L 444.36 222.743 C 457.56 233.443 469.86 240.143 486.86 245.543 L 498.36 249.143 L 494.56 252.543 C 484.46 261.343 464.36 271.843 442.16 279.843 C 425.26 285.943 389.86 295.643 388.76 294.443 C 388.46 294.243 389.16 290.843 390.26 287.043 C 393.96 273.543 395.46 259.243 394.86 242.543 C 394.46 234.043 393.56 224.243 392.86 220.843 L 391.46 214.643 L 402.86 194.343 C 409.26 183.243 416.86 170.343 419.86 165.743 C 425.46 157.243 435.06 145.143 435.66 145.743 C 435.86 145.943 435.06 151.243 433.96 157.543 Z M 109.76 204.043 C 103.66 219.943 101.46 251.743 104.96 272.343 L 106.76 282.643 L 95.36 302.843 C 89.06 313.943 81.46 326.743 78.46 331.343 C 72.86 339.843 63.26 351.943 62.66 351.343 C 62.46 351.143 63.26 345.843 64.36 339.543 C 66.86 325.743 67.36 296.743 65.26 284.043 C 63.76 274.443 60.26 258.543 59.16 256.643 C 58.76 255.843 58.66 260.543 58.96 267.043 L 59.46 278.843 L 53.96 274.343 C 40.76 263.643 28.46 256.943 11.46 251.543 L -0.04 247.943 L 3.76 244.543 C 18.26 231.843 49.16 217.943 83.66 208.643 C 91.96 206.443 100.26 204.243 102.16 203.643 C 107.76 202.143 110.46 202.343 109.76 204.043 Z M 453.96 308.043 C 453.66 308.343 450.06 310.943 445.86 313.843 C 424.76 328.443 405.26 349.343 392.66 371.043 L 388.06 379.043 L 396.46 370.043 L 404.86 361.143 L 405.46 369.043 C 406.86 385.043 412.36 402.443 420.66 416.943 C 423.16 421.343 424.96 425.043 424.76 425.243 C 423.96 426.143 407.56 423.343 399.36 420.943 C 386.76 417.343 369.66 410.343 354.16 402.443 C 339.66 395.143 315.16 380.843 315.16 379.743 C 315.16 379.343 318.46 377.143 322.46 374.843 C 339.26 365.343 357.26 348.943 368.36 333.043 L 373.96 325.043 L 394.86 319.343 C 418.46 312.843 426.46 310.843 437.16 309.043 C 444.86 307.743 454.86 307.143 453.96 308.043 Z M 122.86 321.843 C 132.36 338.643 148.76 356.643 164.66 367.743 L 172.66 373.343 L 178.36 394.243 C 185.46 419.943 187.66 429.643 189.16 440.743 C 191.06 454.643 190.56 455.043 183.96 445.443 C 169.86 424.643 148.36 404.643 126.66 392.043 L 118.66 387.443 L 127.66 395.843 L 136.56 404.243 L 128.66 404.843 C 112.66 406.243 95.26 411.743 80.76 420.043 C 76.36 422.543 72.66 424.343 72.46 424.143 C 71.56 423.343 74.36 406.943 76.76 398.743 C 80.36 386.143 87.36 369.043 95.26 353.543 C 102.56 339.043 116.86 314.543 117.96 314.543 C 118.36 314.543 120.56 317.843 122.86 321.843 Z M 212.16 390.043 C 230.26 394.743 254.86 395.843 272.96 392.743 L 283.26 390.943 L 303.46 402.343 C 314.56 408.643 327.36 416.243 331.96 419.243 C 340.46 424.843 352.56 434.443 351.96 435.043 C 351.76 435.243 346.46 434.443 340.16 433.343 C 326.36 430.843 297.36 430.343 284.66 432.443 C 275.06 433.943 259.16 437.443 257.26 438.543 C 256.46 438.943 261.16 439.043 267.66 438.743 L 279.46 438.243 L 274.96 443.743 C 264.26 456.943 257.56 469.243 252.16 486.243 L 248.56 497.743 L 245.16 493.943 C 230.96 477.743 216.76 444.343 206.16 402.543 C 202.66 388.843 202.56 387.043 204.66 387.943 C 205.56 388.243 208.86 389.243 212.16 390.043 Z" fill="#000000" stroke="none"/>
  <path d="M 216.06 144.043 C 199.56 147.143 186.76 153.243 176.66 162.743 C 164.16 174.343 159.26 185.543 158.46 203.643 C 157.86 216.643 158.86 222.843 163.06 231.443 C 168.06 241.943 179.86 252.343 193.76 258.643 C 197.26 260.243 200.56 261.543 201.16 261.543 C 202.26 261.543 281.16 220.843 282.46 219.643 C 282.96 219.143 279.46 219.443 274.86 220.343 L 266.46 221.843 L 254.26 218.143 C 226.36 209.743 220.16 206.543 220.16 200.543 C 220.16 195.943 221.56 193.943 226.16 192.143 C 231.46 190.043 239.56 190.143 251.06 192.543 L 260.46 194.443 L 292.56 177.943 C 322.86 162.243 329.46 158.543 324.66 159.843 C 323.56 160.143 320.16 160.743 317.06 161.043 C 311.96 161.643 310.86 161.443 304.46 158.243 C 295.06 153.443 279.06 148.043 267.36 145.443 C 254.46 142.743 227.06 141.943 216.06 144.043 Z" fill="#000000" stroke="none" style=""/>
  <path d="M 321.76 198.443 C 320.06 199.143 319.651 199.973 322.76 201.543 C 324.587 202.465 325.431 202.461 324.037 203.489 C 323.106 204.176 322.089 205.035 321.526 206.17 C 321.124 206.981 320.848 209.652 325.37 207.882 C 327.592 207.013 328.09 206.406 327.96 208.043 C 327.823 209.772 327.903 210.117 328.046 210.862 C 328.228 211.806 328.663 213.332 329.652 212.587 C 333.645 208.956 340.16 198.643 340.16 198.143 C 340.16 197.243 324.06 197.543 321.76 198.443 Z" fill="#000000" stroke="none" style=""/>
  <path d="M 281.66 226.343 C 262.36 235.543 234.46 248.743 219.66 255.743 C 159.26 284.043 165.16 280.943 160.86 287.643 C 158.86 290.943 157.16 293.943 157.16 294.343 C 157.16 294.743 160.96 294.943 165.66 294.743 L 174.16 294.443 L 245.96 252.343 C 285.36 229.243 317.86 210.143 318.06 209.943 C 319.56 208.543 312.76 211.543 281.66 226.343 Z" fill="#000000" stroke="none" style=""/>
</svg>