<?xml version="1.0" encoding="utf-8"?>
<svg viewBox="15.801 -14.622 432.224 504.722" xmlns="http://www.w3.org/2000/svg">
  <g transform="matrix(2.788327, 0, 0, 2.788327, -1468.597556, -381.066656)" style="">
    <g transform="matrix(1.680017, 0, 0, 1.473119, 532.361877, 131.420822)" style="">
      <path class="st0" d="M18.61,54.89C15.7,28.8,30.94,10.45,59.52,0C42.02,22.71,74.44,47.31,76.23,70.89 c4.19-7.15,6.57-16.69,7.04-29.45c21.43,33.62,3.66,88.57-43.5,80.67c-4.33-0.72-8.5-2.09-12.3-4.13C10.27,108.8,0,88.79,0,69.68 C0,57.5,5.21,46.63,11.95,37.99C12.85,46.45,14.77,52.76,18.61,54.89L18.61,54.89z" style="clip-rule: evenodd; fill-rule: evenodd; fill: rgb(226, 88, 34);"/>
      <path class="st1" d="M33.87,92.58c-4.86-12.55-4.19-32.82,9.42-39.93c0.1,23.3,23.05,26.27,18.8,51.14 c3.92-4.44,5.9-11.54,6.25-17.15c6.22,14.24,1.34,25.63-7.53,31.43c-26.97,17.64-50.19-18.12-34.75-37.72 C26.53,84.73,31.89,91.49,33.87,92.58L33.87,92.58z" style="clip-rule: evenodd; fill-rule: evenodd; fill: rgb(226, 88, 34);"/>
    </g>
    <g style="" transform="matrix(0.500503, 0, 0, 0.500503, 297.084198, 87.074974)">
      <path d="M 630.759 226.154 C 633.813 230.759 637.506 238.465 640.196 245.942 C 642.978 253.647 647.4 269.787 646.853 270.289 C 646.762 270.425 645.257 270.106 643.525 269.605 C 635.227 267.325 623.6 266.732 615.075 268.191 L 610.379 269.012 L 601.169 263.814 C 596.108 260.942 590.272 257.477 588.175 256.109 C 584.299 253.556 578.783 249.179 579.056 248.905 C 579.147 248.814 581.564 249.179 584.436 249.68 C 590.728 250.82 603.95 251.048 609.74 250.091 C 614.117 249.407 621.366 247.811 622.233 247.31 C 622.597 247.127 620.455 247.082 617.491 247.218 L 612.111 247.446 L 614.163 244.939 C 619.041 238.966 622.324 232.811 624.649 225.334 L 626.154 220.455 L 627.202 221.458 C 627.795 222.006 629.391 224.148 630.759 226.154 Z M 655.698 244.255 C 662.355 253.875 671.883 262.766 681.777 268.51 L 685.425 270.608 L 681.321 266.778 L 677.263 262.948 L 680.865 262.674 C 688.16 262.036 696.093 259.529 702.704 255.744 C 704.71 254.605 706.397 253.784 706.489 253.875 C 706.899 254.24 705.622 261.717 704.528 265.456 C 702.887 271.2 699.695 278.997 696.093 286.064 C 692.765 292.675 686.245 303.845 685.744 303.845 C 685.561 303.845 684.558 302.34 683.51 300.517 C 679.178 292.857 671.701 284.65 664.361 279.544 C 662.081 277.903 660.622 276.58 660.485 275.896 C 660.348 275.349 659.117 270.79 657.75 265.775 C 656.336 260.76 654.786 254.605 654.285 252.097 C 653.282 247.31 652.506 240.06 653.008 240.516 C 653.19 240.699 654.376 242.34 655.698 244.255 Z M 555.485 254.832 C 561.64 256.383 567.84 258.799 576.457 263.039 C 583.98 266.732 595.834 273.526 595.834 274.118 C 595.834 274.301 594.33 275.304 592.506 276.352 C 584.846 280.684 576.64 288.161 571.579 295.41 L 569.026 299.058 L 559.497 301.656 C 547.779 304.894 543.357 305.897 538.296 306.581 C 531.959 307.447 531.776 307.219 536.153 304.21 C 545.636 297.781 554.755 287.979 560.5 278.085 L 562.597 274.437 L 558.767 278.541 L 554.937 282.599 L 554.664 278.997 C 554.026 271.702 551.518 263.769 547.734 257.158 C 546.594 255.152 545.682 253.465 545.682 253.374 C 545.682 252.963 551.655 253.875 555.485 254.832 Z M 586.397 370.365 C 586.397 370.365 587.628 371.961 587.628 371.596 C 587.628 371.505 588.859 371.323 590.363 371.14 C 592.734 370.867 593.281 370.958 594.831 371.915 C 600.485 375.517 608.783 378.663 617.263 380.487 C 621.366 381.399 623.418 381.535 631.625 381.535 C 640.561 381.535 641.519 381.444 645.622 380.35 C 660.212 376.383 668.327 366.49 668.327 352.584 C 668.327 347.614 667.689 344.514 665.956 341.049 C 663.312 335.806 657.613 331.11 650.136 328.009 L 646.807 326.641 L 628.16 336.353 C 617.901 341.642 609.786 346.064 610.105 346.155 C 610.424 346.201 612.065 345.973 613.752 345.654 L 616.807 345.015 L 624.421 347.158 C 634.406 350.031 637.278 351.125 638.874 352.721 C 639.968 353.815 640.151 354.271 639.923 355.684 C 639.74 356.55 639.33 357.645 638.92 358.101 C 636.549 360.745 626.746 360.426 617.537 357.417 L 613.98 356.277 L 600.211 363.298 L 586.397 370.365 Z M 710.182 292.447 C 709.042 298.739 708.814 311.961 709.771 317.751 C 710.455 322.128 712.051 329.377 712.552 330.243 C 712.735 330.608 712.78 328.465 712.644 325.502 L 712.416 320.122 L 714.923 322.173 C 720.942 327.052 726.549 330.107 734.3 332.569 L 739.543 334.21 L 737.811 335.76 C 733.206 339.772 724.042 344.56 713.92 348.207 C 706.215 350.988 690.075 355.411 689.574 354.864 C 689.437 354.772 689.756 353.222 690.257 351.49 C 691.944 345.335 692.628 338.815 692.355 331.201 C 692.172 327.325 691.762 322.857 691.443 321.307 L 690.805 318.48 L 696.002 309.225 C 698.92 304.164 702.385 298.283 703.753 296.185 C 706.306 292.31 710.683 286.793 710.957 287.067 C 711.048 287.158 710.683 289.574 710.182 292.447 Z M 562.369 313.647 C 559.588 320.897 558.585 335.395 560.181 344.787 L 561.001 349.484 L 555.804 358.693 C 552.931 363.754 549.466 369.59 548.098 371.687 C 545.545 375.563 541.168 381.08 540.895 380.806 C 540.804 380.715 541.168 378.298 541.67 375.426 C 542.81 369.134 543.038 355.912 542.08 350.122 C 541.396 345.745 539.801 338.496 539.299 337.629 C 539.117 337.265 539.071 339.408 539.208 342.371 L 539.436 347.751 L 536.928 345.699 C 530.91 340.821 525.302 337.766 517.551 335.304 L 512.308 333.663 L 514.04 332.113 C 520.651 326.322 534.74 319.985 550.469 315.745 C 554.254 314.742 558.038 313.739 558.904 313.465 C 561.457 312.781 562.688 312.872 562.369 313.647 Z M 719.3 361.064 C 719.163 361.201 717.522 362.386 715.607 363.709 C 705.987 370.365 697.096 379.894 691.352 389.788 L 689.254 393.435 L 693.084 389.332 L 696.914 385.274 L 697.188 388.876 C 697.826 396.171 700.334 404.104 704.118 410.715 C 705.258 412.721 706.078 414.408 705.987 414.499 C 705.622 414.91 698.145 413.633 694.406 412.539 C 688.662 410.897 680.865 407.706 673.798 404.104 C 667.187 400.776 656.017 394.256 656.017 393.754 C 656.017 393.572 657.522 392.569 659.345 391.52 C 667.005 387.189 675.212 379.712 680.273 372.462 L 682.826 368.815 L 692.355 366.216 C 703.115 363.253 706.762 362.341 711.641 361.52 C 715.151 360.927 719.711 360.654 719.3 361.064 Z M 568.342 367.356 C 572.673 375.016 580.15 383.222 587.4 388.283 L 591.047 390.836 L 593.646 400.365 C 596.883 412.083 597.886 416.505 598.57 421.566 C 599.436 427.904 599.208 428.086 596.199 423.709 C 589.77 414.226 579.968 405.107 570.074 399.362 L 566.427 397.265 L 570.53 401.095 L 574.588 404.925 L 570.986 405.198 C 563.691 405.837 555.758 408.344 549.147 412.128 C 547.141 413.268 545.454 414.089 545.363 413.998 C 544.953 413.633 546.229 406.156 547.323 402.417 C 548.965 396.672 552.156 388.876 555.758 381.809 C 559.086 375.198 565.606 364.028 566.108 364.028 C 566.29 364.028 567.293 365.532 568.342 367.356 Z M 609.056 398.45 C 617.309 400.593 628.525 401.095 636.777 399.681 L 641.473 398.861 L 650.683 404.058 C 655.744 406.931 661.579 410.396 663.677 411.764 C 667.552 414.317 673.069 418.694 672.795 418.967 C 672.704 419.058 670.288 418.694 667.415 418.192 C 661.124 417.052 647.902 416.824 642.111 417.782 C 637.734 418.466 630.485 420.062 629.619 420.563 C 629.254 420.745 631.397 420.791 634.36 420.654 L 639.74 420.426 L 637.689 422.934 C 632.81 428.952 629.756 434.56 627.294 442.311 L 625.652 447.554 L 624.102 445.822 C 617.628 438.436 611.154 423.207 606.321 404.15 C 604.725 397.903 604.679 397.083 605.637 397.493 C 606.047 397.63 607.552 398.086 609.056 398.45 Z" stroke="none" style="fill: rgb(250, 174, 9);"/>
      <path d="M 610.834 286.292 C 603.312 287.705 597.476 290.486 592.871 294.818 C 587.172 300.106 584.938 305.213 584.573 313.465 C 584.299 319.392 584.755 322.219 586.67 326.14 C 588.95 330.927 594.33 335.669 600.667 338.541 C 602.263 339.271 603.768 339.863 604.041 339.863 C 604.543 339.863 640.515 321.307 641.108 320.76 C 641.336 320.532 639.74 320.669 637.643 321.079 L 633.813 321.763 L 628.251 320.076 C 615.531 316.246 612.704 314.787 612.704 312.052 C 612.704 309.954 613.342 309.043 615.439 308.222 C 617.856 307.264 621.549 307.31 626.792 308.404 L 631.078 309.271 L 645.713 301.748 C 659.528 294.59 662.537 292.903 660.348 293.495 C 659.847 293.632 658.297 293.906 656.883 294.042 C 654.558 294.316 654.057 294.225 651.139 292.766 C 646.853 290.577 639.558 288.115 634.224 286.93 C 628.342 285.699 615.85 285.334 610.834 286.292 Z" stroke="none" style="fill: rgb(250, 174, 9);"/>
      <path d="M 659.026 311.094 C 658.251 311.413 658.065 311.792 659.482 312.508 C 660.315 312.928 660.7 312.926 660.064 313.395 C 659.64 313.708 659.176 314.1 658.92 314.617 C 658.736 314.987 658.61 316.205 660.672 315.398 C 661.685 315.002 661.912 314.725 661.853 315.471 C 661.791 316.259 661.827 316.417 661.892 316.756 C 661.975 317.187 662.174 317.883 662.624 317.543 C 664.445 315.887 667.415 311.185 667.415 310.957 C 667.415 310.547 660.075 310.684 659.026 311.094 Z" stroke="none" style="fill: rgb(250, 174, 9);"/>
      <path d="M 640.743 323.815 C 631.944 328.009 619.224 334.028 612.476 337.219 C 584.938 350.122 587.628 348.708 585.667 351.763 C 584.755 353.268 583.98 354.636 583.98 354.818 C 583.98 355 585.713 355.092 587.856 355 L 591.731 354.864 L 624.467 335.669 C 642.43 325.137 657.248 316.429 657.339 316.337 C 658.023 315.699 654.923 317.067 640.743 323.815 Z" stroke="none" style="fill: rgb(250, 174, 9);"/>
    </g>
  </g>
</svg>